<?xml version="1.0" encoding="utf-8"?>
<!-- Generator: Adobe Illustrator 19.0.0, SVG Export Plug-In . SVG Version: 6.00 Build 0)  -->
<svg version="1.1" id="Layer_1" xmlns="http://www.w3.org/2000/svg" xmlns:xlink="http://www.w3.org/1999/xlink" x="0px" y="0px"
	 viewBox="0 0 512 512" style="enable-background:new 0 0 512 512;" xml:space="preserve">
<g id="XMLID_1_">
	<path id="XMLID_5_" style="fill: red; stroke-width: 10px;" d="M256,85.6c23.3,0,42.8-18.6,42.8-42.8C298.8,19.5,279.3,0,256,0s-42.8,19.5-42.8,42.8S232.7,85.6,256,85.6z
		 M298.8,94.9h-85.6c-32.6,0-53,27.9-53,54.9v129.3c0,25.1,35.4,25.1,35.4,0V160h6.5v326.5c0,34.4,48.4,33.5,49.3,0V297.7h9.3v187.9
		c1.9,35.4,49.3,32.6,49.3,0V160h5.6v120c0,25.1,36.3,25.1,36.3,0V149.8C351.8,122.8,330.4,94.9,298.8,94.9z"/>
</g>
</svg>
